<?xml version="1.0" encoding="UTF-8" standalone="no"?>
<svg width="60px" height="60px" viewBox="0 0 60 60" version="1.1" xmlns="http://www.w3.org/2000/svg" xmlns:xlink="http://www.w3.org/1999/xlink">
    <!-- Generator: Sketch 41 (35326) - http://www.bohemiancoding.com/sketch -->
    <title>icon_exit</title>
    <desc>Created with Sketch.</desc>
    <defs>
        <linearGradient x1="50%" y1="0%" x2="50%" y2="100%" id="linearGradient-1">
            <stop stop-color="#B4ED50" offset="0%"></stop>
            <stop stop-color="#429321" offset="100%"></stop>
        </linearGradient>
    </defs>
    <g id="Page-1" stroke="none" stroke-width="1" fill="none" fill-rule="evenodd">
        <g id="11-Mobile-Footer-2" transform="translate(-205.000000, -608.000000)" fill="url(#linearGradient-1)">
            <g id="Exit" transform="translate(205.000000, 608.000000)">
                <path d="M29.4292214,1.14209213 C29.7435956,0.827717916 29.8078443,0.377572837 29.5722657,0.141994219 C29.336283,-0.0935843988 28.886542,-0.0293356848 28.5721678,0.285038526 L15.4286589,13.4285475 C15.1142847,13.7425176 14.5998909,13.7425176 14.2855167,13.4285475 L1.14200773,0.285038526 C0.828037599,-0.0293356848 0.377892521,-0.0935843988 0.142313903,0.141994219 C-0.0936687955,0.377572837 -0.0294200814,0.827717916 0.284954129,1.14209213 L13.4284631,14.2856011 C13.7428373,14.5999753 13.7428373,15.1143691 13.4284631,15.4283392 L0.284954129,28.5718481 C-0.0294200814,28.8862224 -0.0936687955,29.3363674 0.142313903,29.571946 C0.377892521,29.8075247 0.828037599,29.743276 1.14200773,29.4293058 L14.2855167,16.2857969 C14.5998909,15.9714227 15.1142847,15.9714227 15.4286589,16.2857969 L28.8578524,29.7149904 C29.1722266,30.0289605 29.6219676,30.0936133 29.8579503,29.8576306 C30.0935289,29.622052 30.0292802,29.1719069 29.714906,28.8575327 L16.2857125,15.4283392 C15.9713383,15.1143691 15.9713383,14.5999753 16.2857125,14.2856011 L29.4292214,1.14209213 Z" id="icon_exit"></path>
            </g>
        </g>
    </g>
</svg>