<?xml version="1.0" encoding="UTF-8" standalone="no"?>
<svg width="59px" height="59px" viewBox="0 0 59 59" version="1.1" xmlns="http://www.w3.org/2000/svg" xmlns:xlink="http://www.w3.org/1999/xlink">
    <!-- Generator: Sketch 39 (31667) - http://www.bohemiancoding.com/sketch -->
    <title>Combined Shape</title>
    <desc>Created with Sketch.</desc>
    <defs>
        <linearGradient x1="50%" y1="0%" x2="50%" y2="100%" id="linearGradient-1">
            <stop stop-color="#B4ED50" offset="0%"></stop>
            <stop stop-color="#429321" offset="100%"></stop>
        </linearGradient>
    </defs>
    <g id="1080" stroke="none" stroke-width="1" fill="none" fill-rule="evenodd">
        <g id="11-Footer-2-1080" transform="translate(-423.000000, -869.000000)" fill="url(#linearGradient-1)">
            <g id="Restart" transform="translate(423.000000, 869.000000)">
                <path d="M52.1391621,15.5395994 C54.7108154,19.721936 56.0964567,24.559375 56.0964567,29.5 C56.0964567,44.1570866 44.180315,56.0964567 29.5,56.0964567 C14.819685,56.0964567 2.90354331,44.180315 2.90354331,29.5 C2.90354331,14.819685 14.819685,2.90354331 29.5232283,2.90354331 C35.5393701,2.90354331 41.230315,4.87795276 45.9688976,8.59448819 L47.7574803,6.31811024 C42.507874,2.18346457 36.1897638,0 29.5,0 C13.2401575,0 0,13.2401575 0,29.5 C0,45.7598425 13.2401575,59 29.5,59 C45.7598425,59 59,45.7598425 59,29.4767717 C59,23.9019132 57.3965506,18.4339514 54.4496731,13.7538947 L57.188189,11.6374016 L48.3846457,8.73385827 L49.3137795,17.7232283 L52.1391621,15.5395994 Z" id="Combined-Shape"></path>
            </g>
        </g>
    </g>
</svg>