<?xml version="1.0" encoding="UTF-8" standalone="no"?>
<svg width="75px" height="75px" viewBox="0 0 75 75" version="1.1" xmlns="http://www.w3.org/2000/svg" xmlns:xlink="http://www.w3.org/1999/xlink">
    <!-- Generator: Sketch 39 (31667) - http://www.bohemiancoding.com/sketch -->
    <title>Fill 1</title>
    <desc>Created with Sketch.</desc>
    <defs></defs>
    <g id="1080" stroke="none" stroke-width="1" fill="none" fill-rule="evenodd">
        <g id="05-NINJA-DETAILS-1-1080" transform="translate(-923.000000, -70.000000)" fill="#50B748">
            <path d="M995.830192,72.8264013 C996.608192,72.0484013 996.767192,70.9344013 996.184192,70.3514013 C995.600192,69.7684013 994.487192,69.9274013 993.709192,70.7054013 L961.182192,103.232401 C960.404192,104.009401 959.131192,104.009401 958.353192,103.232401 L925.826192,70.7054013 C925.049192,69.9274013 923.935192,69.7684013 923.352192,70.3514013 C922.768192,70.9344013 922.927192,72.0484013 923.705192,72.8264013 L956.232192,105.353401 C957.010192,106.131401 957.010192,107.404401 956.232192,108.181401 L923.705192,140.708401 C922.927192,141.486401 922.768192,142.600401 923.352192,143.183401 C923.935192,143.766401 925.049192,143.607401 925.826192,142.830401 L958.353192,110.303401 C959.131192,109.525401 960.404192,109.525401 961.182192,110.303401 L994.416192,143.537401 C995.194192,144.314401 996.307192,144.474401 996.891192,143.890401 C997.474192,143.307401 997.315192,142.193401 996.537192,141.415401 L963.303192,108.181401 C962.525192,107.404401 962.525192,106.131401 963.303192,105.353401 L995.830192,72.8264013 Z" id="Fill-1"></path>
        </g>
    </g>
</svg>