<svg version="1.1" id="Layer_145" xmlns="http://www.w3.org/2000/svg" xmlns:xlink="http://www.w3.org/1999/xlink" x="0px" y="0px" viewBox="0 0 182.6 358.1" style="enable-background:new 0 0 182.6 358.1;" xml:space="preserve"><style type="text/css">.phoneSvg{fill:#FFFFFF;}</style><path class="phoneSvg" d="M177,37.2c0,0,0,277,0,281.5c0,5.3-1.2,12.4-8.6,20.5c-7.3,8.1-21.1,8.5-27.9,9.1c-5.1,0.4-31.7,0.8-44.9,0.9v0.1c0,0-1.4,0-3.8,0c-2.4,0-3.8,0-3.8,0v-0.1c-13.3-0.2-39.9-0.5-44.9-0.9c-6.8-0.6-20.5-1-27.9-9.1c-7.3-8.1-8.6-15.2-8.6-20.5c0-4.6,0-281.5,0-281.5s0.2-10.7,7.2-16.4c6.9-5.7,14.7-8.3,20.1-8.4c4.9-0.1,31.9-0.7,54.1-0.8v0c1.2,0,2.5,0,3.8,0c1.3,0,2.5,0,3.8,0v0c22.2,0.1,49.3,0.7,54.1,0.8c5.4,0.1,13.2,2.7,20.1,8.4C176.7,26.5,177,37.2,177,37.2z M168,46.8c0-2.6-2.1-4.8-4.8-4.8H20.5c-2.6,0-4.8,2.1-4.8,4.8v256.3c0,2.6,2.1,4.8,4.8,4.8h142.7c2.6,0,4.8-2.1,4.8-4.8V46.8z M119.7,16.7c-1.9,0-3.5,1.5-3.5,3.5c0,1.9,1.5,3.5,3.5,3.5c1.9,0,3.5-1.5,3.5-3.5C123.2,18.2,121.6,16.7,119.7,16.7z M131,16.7c-1.9,0-3.5,1.5-3.5,3.5c0,1.9,1.5,3.5,3.5,3.5c1.9,0,3.5-1.5,3.5-3.5C134.5,18.2,132.9,16.7,131,16.7z M114.7,332.7c0-2.7-2.2-5-5-5H74c-2.7,0-5,2.2-5,5v0.9c0,2.7,2.2,5,5,5h35.8c2.7,0,5-2.2,5-5V332.7z"></path></svg>