<?xml version="1.0" encoding="UTF-8" standalone="no"?>
<svg width="742px" height="130px" viewBox="0 0 742 130" version="1.1" xmlns="http://www.w3.org/2000/svg" xmlns:xlink="http://www.w3.org/1999/xlink">
    <!-- Generator: Sketch 39 (31667) - http://www.bohemiancoding.com/sketch -->
    <title>Logo</title>
    <desc>Created with Sketch.</desc>
    <defs></defs>
    <g id="Page-1" stroke="none" stroke-width="1" fill="none" fill-rule="evenodd">
        <g id="01-HOME" transform="translate(-378.000000, -408.000000)" fill="#FFFFFF">
            <g id="Logo" transform="translate(378.000000, 408.000000)">
                <path d="M483.35222,40.4410459 C481.798208,39.6749584 479.971561,39.3458644 478.008599,39.3458644 L379.800475,39.3458644 C375.411072,39.4483691 371.174343,40.7809298 369.522183,43.9585746 L369.511278,43.9585746 C369.478562,44.0233144 369.35315,44.2175337 369.35315,44.2175337 L369.233191,44.4009632 L351.681031,84.9928124 C350.236073,87.9438678 355.012616,90.1396258 360.07815,90.1450208 L458.29718,90.1450208 C462.697488,90.0425161 466.966932,88.6937704 468.597282,85.4675708 L478.248516,62.2098008 C478.428455,61.7889921 478.526603,61.3412086 478.52115,60.904215 C478.548413,59.345065 477.283393,57.9639495 475.740286,57.2302318 C474.191726,56.4641443 472.359628,56.1404453 470.40757,56.1350503 L382.924857,56.1350503 L385.591215,50.0872748 C404.261173,50.0872748 449.387509,50.0872748 465.183908,50.0926698 L463.738949,53.4267691 L482.468886,53.4267691 L485.865903,45.4206149 C486.034936,44.9998062 486.127631,44.5466277 486.133084,44.1096341 C486.149442,42.5504841 484.889874,41.1747636 483.35222,40.4410459 Z M457.571974,66.8818557 L452.397386,79.3982154 C439.305514,79.3982154 393.486688,79.3982154 372.810146,79.3928204 L378.170125,66.8818557 L457.571974,66.8818557 Z M603.67203,57.2447983 C602.118018,56.4733158 600.296824,56.1550118 598.344767,56.1442218 L510.856601,56.1334318 L513.517507,50.0856563 C521.009482,50.0910513 532.770901,50.0910513 545.181189,50.0910513 L545.06123,50.0155216 L611.916474,49.9184119 L616.464005,39.344246 L507.726766,39.344246 C503.348268,39.4359607 499.11154,40.7793113 497.45938,43.9515611 L497.448474,43.9515611 C497.415758,44.0270909 497.284894,44.2159153 497.284894,44.2159153 L497.159483,44.3993447 L487.393742,66.9773469 L506.074606,66.950372 L506.101869,66.8856322 C524.886333,66.8802372 569.750941,66.8910272 585.498265,66.8964222 L580.323677,79.4073869 C567.24271,79.4019919 521.418432,79.3965969 500.736437,79.3912019 L503.926252,71.9461259 L485.239936,71.9677058 L479.612775,84.9911939 C478.167817,87.9314594 482.938907,90.1380073 487.998989,90.1380073 L586.218018,90.1541922 C590.62378,90.0516876 594.893224,88.7029419 596.523574,85.4875323 L606.185713,62.2243672 C606.354746,61.7981636 606.458347,61.355775 606.458347,60.9187814 C606.474705,59.3596315 605.215137,57.9785159 603.67203,57.2447983 Z M741.999844,44.0767247 C742.016202,42.5175747 740.745729,41.1310642 739.21898,40.4027415 C737.664967,39.642049 735.821963,39.3075601 733.875358,39.3075601 L635.661782,39.3129551 C631.277831,39.4154597 627.041103,40.7534154 625.394396,43.9256652 L625.38349,43.9256652 C625.339869,43.9958 625.214457,44.1846244 625.214457,44.1846244 L625.089046,44.3680538 L607.547791,84.9652979 C606.09738,87.9055635 610.879375,90.1067164 615.939458,90.1121114 L714.163939,90.1121114 C718.564248,90.0042117 722.833692,88.6554661 724.469495,85.4346614 L724.529474,85.2782069 L724.556737,85.2836019 L741.72721,45.3823105 C741.896243,44.9615018 741.994391,44.5137183 741.999844,44.0767247 Z M708.264145,79.365306 L628.671453,79.365306 L632.78277,69.7676319 L632.979066,69.3144534 L634.04779,66.8489463 L634.069601,66.8489463 L638.802523,56.096746 L638.780712,56.096746 L641.452522,50.0543654 L721.045215,50.0543654 L708.264145,79.365306 Z M237.487846,40.4415854 C240.846694,43.4789606 240.432291,49.6184508 238.196694,51.4851148 C235.961097,53.3409888 233.758217,54.9972485 232.455028,56.2542795 C231.151838,57.5113104 231.222723,58.8168962 229.466962,61.1798986 C227.705748,63.537506 210.595255,85.6623297 210.595255,85.6623297 C210.595255,85.6623297 208.588671,88.7644447 205.295255,92.4869827 C201.996387,96.2041257 198.250399,101.032635 193.773753,104.507004 C189.967786,107.458059 187.917581,108.466921 182.541244,109.869617 C176.963157,111.320867 170.463569,112.437628 167.317376,113.780979 C161.144948,116.413731 142.322315,126.216414 138.941657,128.185583 C135.555546,130.149356 130.124682,128.746661 133.679826,126.335104 C138.958015,122.752835 158.238672,112.469998 162.884351,106.756712 C164.541964,104.722803 170.223651,101.825698 176.347005,96.6033544 C178.964289,94.3698316 183.081058,89.0773537 184.187951,88.1871816 C196.859967,77.8827648 205.464288,62.614964 207.770769,59.4265292 C210.022724,56.3136243 211.096901,53.1521645 213.817786,50.816137 C216.266036,48.7282787 222.127662,45.7988032 223.523546,44.6280919 C225.873649,42.6481333 228.490933,37.2963105 228.861715,37.0427464 C230.077661,36.211919 234.123546,37.4096052 237.487846,40.4415854 Z M60.327174,28.1383276 C60.327174,28.1383276 41.7880801,50.8242295 36.2808787,66.17835 C34.6123602,70.82343 28.145488,83.3397897 24.0668873,89.765214 C20.9697681,94.6422783 16.127793,96.9189609 11.2367438,98.132832 C6.50382216,99.3089382 2.23983055,99.0068192 0.947546652,98.122042 C-2.37858491,95.8345694 3.84291691,85.5894974 7.41441884,80.0272704 C11.3294393,73.93094 15.5552621,68.2068634 23.837875,57.8970517 C32.1204879,47.5818449 45.2941499,34.8658709 45.2941499,34.8658709 C45.2941499,34.8658709 58.9640054,22.0258123 63.211639,17.9364154 C67.4647252,13.8470186 66.5868446,12.8921067 69.6839638,10.7556936 C72.7756304,8.62467544 76.4125644,8.65704534 80.1749099,11.7807403 C83.9372555,14.9044352 83.8554653,18.2601144 82.8412678,20.7094365 C82.4486753,21.6589534 78.3428112,31.9579753 74.2751159,41.7498687 C67.7973384,57.3521584 63.6096842,67.0793121 61.3904456,72.1452008 C57.5735733,80.8796776 59.1166803,84.0681123 62.3337583,81.5648404 C63.6205896,80.5613736 69.7657539,71.4276681 74.6022764,65.2234381 C81.816165,55.9602529 88.2339631,48.7363712 88.2339631,48.7363712 C88.2339631,48.7363712 118.25639,14.0790029 121.571616,9.9086813 C124.886842,5.73835974 124.886842,3.93643555 126.849805,2.17227623 C128.818221,0.418906882 131.015649,0.316402212 133.213077,2.44202536 C135.410505,4.56225353 135.132418,6.39654762 133.327583,8.23623669 C131.517295,10.0813207 129.189003,9.96802611 125.90104,14.3109871 C122.61853,18.6539481 105.469868,41.3020851 105.469868,41.3020851 C105.469868,41.3020851 86.341885,70.83422 78.882626,80.8904676 C71.423367,90.9521102 68.3916799,94.404899 64.1604043,97.9116377 C61.0796431,100.468859 58.0425033,103.651899 45.8666808,103.55479 C42.9822158,102.901997 35.7083478,101.380612 36.6134918,96.0126038 C36.8206934,94.8041277 38.0202819,89.0422863 41.1337591,80.6692733 C43.6147261,74.0226547 48.058656,65.1802782 50.8885941,57.5949326 C56.7447668,41.9386931 62.1865361,29.1363993 62.1538201,27.4855347 C62.1265567,25.83467 60.327174,28.1383276 60.327174,28.1383276 Z M135.185309,25.676597 C137.262778,22.8064662 145.240041,12.2053254 147.617407,9.29203479 C149.951152,6.432694 155.720082,3.44926862 158.708148,6.62691338 C161.701666,9.80995312 162.186954,15.8307537 159.689629,17.1255495 C147.312058,23.513209 143.653313,24.8403747 138.865864,27.8669599 C136.030474,29.6473042 133.113293,28.5467277 135.185309,25.676597 Z M103.885321,49.2122087 C106.055485,48.0199175 112.473283,45.6137552 115.701267,42.4415055 C118.934703,39.2746507 123.509497,34.3436366 125.897768,34.1494172 C128.280587,33.9498028 128.705896,33.9390129 132.239229,35.8164668 C135.772562,37.6939208 136.110628,38.238814 135.897974,40.4453619 C135.685319,42.6573048 131.846636,50.5987192 129.665566,53.2152858 C128.002501,55.2168243 120.897666,61.512769 119.632645,62.9154645 C118.367625,64.31816 119.932542,65.5158461 121.186657,64.7065987 C122.43532,63.8865614 145.429249,49.1960237 148.433673,46.9517109 C151.438097,44.7073982 163.837479,35.5197428 169.001162,37.5914161 C174.170297,39.6684844 170.827808,47.1513253 170.827808,47.1513253 C170.827808,47.1513253 182.191182,40.5208917 188.679865,36.4746547 C194.4597,32.8600163 203.598383,30.2380548 207.557024,32.2665683 C212.022765,34.5540409 213.533156,38.3844785 212.758876,40.2835124 C211.024926,44.5401537 207.818753,48.9910144 205.392313,51.591396 C202.96042,54.1971726 187.022252,71.3100574 185.980791,72.394449 C184.933877,73.4842354 185.664536,74.6603416 186.940461,74.250323 C188.210935,73.8403043 189.999412,73.2738311 191.526161,72.8044676 C193.058362,72.3351041 192.74756,76.3759461 191.58614,77.649162 C190.419268,78.9115879 184.688507,82.1323926 178.94684,86.4861435 C176.820297,88.0992433 175.282643,89.766293 174.328425,90.2572364 C171.040462,91.9566559 167.981512,89.2807445 165.598693,87.3277608 C163.210421,85.3747771 158.613816,81.4310448 159.818858,78.1131305 C161.585524,73.2684361 180.893445,55.1898494 182.218445,53.8141288 C184.045091,51.9258849 181.460523,49.8865815 179.470297,50.9386031 C177.15291,52.1632641 165.964022,58.2488045 157.070709,64.7551536 C151.961553,68.4938765 147.108673,77.5520523 144.311451,81.9651481 C140.369167,88.1801681 139.469476,92.9978876 136.710422,93.0356524 C133.340669,93.0842073 127.271842,89.0649452 125.957748,87.1119615 C124.6382,85.1589778 124.643653,81.992123 125.614229,79.9204497 C126.79746,77.4063878 134.916492,69.5351082 141.116183,63.5898373 C143.957027,60.8707661 147.152294,57.4557421 148.362788,55.9883068 C150.560216,53.3339754 152.196018,51.273092 152.937582,50.021456 C154.093549,48.0792623 153.226574,47.4426544 152.065154,48.4083562 C150.516595,49.6977571 143.166389,54.8337805 143.166389,54.8337805 C143.166389,54.8337805 119.872563,70.840694 116.262892,74.2179531 C112.658674,77.6006072 103.590876,86.1300747 101.54067,87.8618641 C99.4850121,89.5936535 95.1773991,91.7030917 89.8555886,90.6618601 C85.9133048,89.8849826 84.1629962,87.7431745 83.6995188,85.5150467 C83.2414942,83.2869189 84.9154653,81.3447251 87.5272965,77.6383721 C88.4433458,76.3435762 93.8142304,69.3570737 94.5230781,68.6125661 C98.1327487,64.8738432 103.841699,63.9243262 103.928942,59.9320391 C103.978016,57.6607514 99.6758557,55.9127771 99.6104236,53.9597934 C99.5831602,53.0965961 101.709703,50.4098948 103.885321,49.2122087 Z M257.859039,1.33227744 C259.276734,0.0644565243 262.581055,-1.53785331 265.91264,3.09104177 C268.442681,6.61396542 267.668401,9.36001157 267.052249,10.6548074 C266.430644,11.9603932 264.440417,14.1345712 262.057599,15.6020065 C258.59515,17.7492095 256.234142,18.526087 251.228587,21.1372586 C246.212126,23.7538252 242.526118,27.228194 239.903381,28.781949 C237.280645,30.341099 235.344945,29.6343562 237.673237,25.7877336 C238.665624,24.126079 244.985274,16.351909 249.620048,10.3311084 C253.769533,4.96310074 256.446796,2.59470337 257.859039,1.33227744 Z M328.032236,69.0608892 C325.927504,64.7341131 323.31022,64.788063 320.654767,65.9048244 C319.956825,66.1961534 316.37987,68.7641651 307.115776,72.3949884 C305.332751,73.1017312 287.81876,79.0200271 283.663822,80.2123183 C282.387896,80.589967 281.117423,79.8022996 282.415159,78.2323596 C288.06413,71.4131016 291.788307,68.7533752 295.272566,64.4104142 C297.977093,61.054735 294.923595,58.2925039 295.343451,57.1811375 C295.763307,56.075166 299.656517,54.6562856 301.892113,52.061299 C304.12771,49.4609174 309.165982,42.4582299 307.781002,36.3618996 C306.597772,31.1449514 298.222463,31.3121958 290.801373,33.9017875 C289.400036,34.3927309 282.202505,37.6674854 278.445612,39.1133407 C272.44767,41.4116033 268.358164,41.7137223 244.093762,55.5086929 C235.549421,60.3641772 229.824112,65.5109906 228.10652,67.9063629 C227.27226,69.0608892 224.158783,73.3768753 222.877405,76.9051939 C221.497878,80.6924717 221.666911,84.8304234 222.839236,87.3336953 C223.531725,88.8119205 226.896026,92.6477532 229.060738,94.2176931 C230.86012,95.512489 234.278947,95.3344545 236.819894,93.7537246 C246.738309,87.5818645 253.434193,84.0373609 257.251066,81.2535499 C258.505181,80.3364029 262.938205,77.5202219 265.151991,76.1175265 C265.920819,75.631978 266.171642,76.0366017 265.909913,76.8134792 C265.653637,77.5903567 263.298082,85.5209812 264.993864,89.588798 C266.444275,93.0847468 270.539234,94.266248 272.769378,93.3437059 C274.994069,92.4265589 297.497258,83.082449 315.311146,78.5938235 C323.195713,76.6030749 326.843553,77.3044226 328.114026,76.1175265 C330.076989,74.2670474 328.806516,70.6362241 328.032236,69.0608892 Z M267.523905,64.9660974 C265.364646,67.1942252 264.693967,69.0447042 263.521642,69.5356477 C262.343864,70.0265911 254.366601,73.150286 251.351272,74.7795708 C247.463515,76.872824 243.826581,78.0920901 241.329256,79.0685819 C239.36084,79.8400645 237.337898,80.6924717 236.569071,79.5918953 C235.631211,78.2269647 236.258268,76.8134792 239.807959,73.8840037 C245.173391,69.4493279 255.795202,63.212728 259.884708,61.04934 C263.963308,58.891347 270.255695,56.1884607 273.974419,54.3595616 C277.687691,52.5360574 283.385736,50.2755597 286.341085,50.6100486 C288.271332,50.825848 289.067423,52.9352862 288.249521,53.8362483 C287.420715,54.7318154 280.244995,58.3140838 277.491394,59.9325786 C273.641806,62.1930763 268.783473,63.6766965 267.523905,64.9660974 Z M328.517524,35.0552348 C327.356104,36.2097611 325.949314,36.7870242 324.302606,36.7870242 C322.655899,36.7870242 321.260014,36.2097611 320.104047,35.0552348 C318.953533,33.9061035 318.375549,32.5195929 318.375549,30.8849132 C318.375549,29.2664184 318.958985,27.8853029 320.120405,26.7361716 C321.276372,25.5870403 322.672257,25.0205671 324.302606,25.0205671 C325.949314,25.0205671 327.356104,25.5870403 328.517524,26.7361716 C329.673491,27.8745129 330.256927,29.2610234 330.256927,30.8849132 C330.256927,32.508803 329.673491,33.9061035 328.517524,35.0552348 Z M320.692936,27.3134347 C319.700549,28.3007165 319.204356,29.4930077 319.204356,30.8903082 C319.204356,32.3037936 319.695096,33.5068748 320.687483,34.4995516 C321.67987,35.4922284 322.884911,35.9885668 324.302606,35.9885668 C325.725755,35.9885668 326.930796,35.4922284 327.923182,34.4995516 C328.915569,33.5068748 329.417215,32.3037936 329.417215,30.8903082 C329.417215,29.4930077 328.915569,28.3007165 327.923182,27.3134347 C326.925343,26.3207579 325.720302,25.8244195 324.302606,25.8244195 C322.895816,25.8244195 321.690775,26.3207579 320.692936,27.3134347 Z M324.193553,27.6371337 C325.000549,27.6371337 325.59489,27.7126634 325.971125,27.8745129 C326.647257,28.149657 326.985322,28.6945503 326.985322,29.5091926 C326.985322,30.0864558 326.772668,30.5126594 326.347359,30.7824085 C326.1238,30.9280731 325.807545,31.0305777 325.404047,31.0953175 C325.911145,31.1762423 326.28738,31.3866466 326.521845,31.7265305 C326.761763,32.0718094 326.876269,32.4009033 326.876269,32.7246023 L326.876269,33.1993608 C326.876269,33.3504203 326.887174,33.5068748 326.892627,33.6795142 C326.908985,33.8521536 326.925343,33.9600533 326.952606,34.0193981 L326.990775,34.0949279 L325.916598,34.0949279 C325.911145,34.0733479 325.905693,34.051768 325.90024,34.0355831 C325.894787,34.0086081 325.889335,33.9870282 325.883882,33.9600533 L325.856619,33.755044 L325.856619,33.2425206 C325.856619,32.492618 325.65487,32.0070696 325.245919,31.7642954 C325.000549,31.6240258 324.57524,31.5538911 323.964541,31.5538911 L323.059397,31.5538911 L323.059397,34.0949279 L321.908882,34.0949279 L321.908882,27.6371337 L324.193553,27.6371337 Z M325.43131,28.6567854 C325.142318,28.4949359 324.678841,28.4140112 324.040878,28.4140112 L323.059397,28.4140112 L323.059397,30.7554336 L324.095405,30.7554336 C324.586146,30.7554336 324.951475,30.7068788 325.191392,30.6097691 C325.643964,30.4317347 325.867524,30.0972457 325.867524,29.6009073 C325.867524,29.1315439 325.720302,28.8186349 325.43131,28.6567854 Z" id="Combined-Shape"></path>
            </g>
        </g>
    </g>
</svg>