<?xml version="1.0" encoding="utf-8" ?>
<!-- Generator: Adobe Illustrator 21.0.0, SVG Export Plug-In . SVG Version: 6.00 Build 0)  -->
<svg version="1.1" id="Layer_1" xmlns="http://www.w3.org/2000/svg" xmlns:xlink="http://www.w3.org/1999/xlink" x="0px" y="0px"
	 viewBox="0 0 87.3 18.7" style="enable-background:new 0 0 87.3 18.7;" xml:space="preserve">
<style type="text/css">
	.st0{fill-rule:evenodd;clip-rule:evenodd;fill:#FFFFFF;}
</style>
<g>
<path class="st0" d="M50.7,2.4c0.1-0.1,0.1-0.2,0.1-0.4l0.3-1.5c0-0.2-0.1-0.3-0.2-0.3h-9.4c-0.2,0-0.3,0.1-0.3,0.3l-0.8,4.2
		c0,0.2,0.1,0.3,0.2,0.3h1.5c0.2,0,0.3-0.1,0.3-0.3l0.4-2.3c0-0.1,0.1-0.2,0.2-0.2h5.5v0.1l-8,14.4h-8.4L35,0.6
		c0-0.2-0.1-0.3-0.2-0.3h-1.5c-0.2,0-0.3,0.1-0.5,0.2l-3.5,2.3c-0.1,0.1-0.2,0.2-0.2,0.4L28.8,5c-0.1,0.2,0.1,0.3,0.3,0.2L32.4,3
		h0.1L30,16.7h-7.7c0.2-0.3,0.5-0.7,0.6-1.1c0.8-1.7,2.2-9.5,2.2-11.4c0-2.6-1.6-4.2-4.3-4.2c-2.3,0-4.2,1-5.3,3.3
		c-0.8,1.7-2.2,9.5-2.2,11.4c0,0.7,0.1,1.4,0.4,1.9H10H3.1v-0.1l6.8-7.2C11.5,7.6,12.4,6,12.4,4c0-2.3-1.7-4-4.4-4
		C5,0,3.1,2.1,2.5,4.3c-0.1,0.2,0,0.3,0.1,0.3L4.1,5c0.2,0,0.3-0.1,0.3-0.2C5,3.1,6.2,2,7.9,2c1.5,0,2.3,0.9,2.3,2.3
		c0,1.3-0.6,2.5-1.9,3.9l-7.8,8.5c-0.1,0.1-0.2,0.3-0.2,0.4L0,18.4c0,0.2,0.1,0.3,0.2,0.3h2.1l0,0h13.6h3.6h61.8v-2H42.7L50.7,2.4z
		 M19.3,16.7c-0.4,0.2-0.9,0.3-1.4,0.3c-0.5,0-0.9-0.1-1.3-0.3c-0.7-0.4-1.1-1.1-1.1-2.1c0-1.7,1.3-9.3,2.1-10.7
		c0.6-1.2,1.6-1.9,3-1.9c1.6,0,2.4,1,2.4,2.4c0,1.7-1.3,9.3-2,10.7C20.5,15.8,20,16.4,19.3,16.7z" />
<polygon class="st0" points="84.4,16.7 84.4,18.7 87.3,18.7 87.3,16.7 	" />
</g>
</svg>
