<?xml version="1.0" encoding="utf-8"?>
<!-- Generator: Adobe Illustrator 19.2.1, SVG Export Plug-In . SVG Version: 6.00 Build 0)  -->
<svg version="1.1" id="Layer_1" xmlns="http://www.w3.org/2000/svg" xmlns:xlink="http://www.w3.org/1999/xlink" x="0px" y="0px"
	 viewBox="0 0 20 17.1" style="enable-background:new 0 0 20 17.1;" xml:space="preserve">
<style type="text/css">
	.st0{enable-background:new    ;}
	.st1{fill:#FFFFFF;}
</style>
<title></title>
<desc>Created with Sketch.</desc>
<g id="_x31_080">
	<g id="_x30_8-Social-2-1080" transform="translate(-1140.000000, -828.000000)">
		<g id="Social-Icons" transform="translate(385.000000, 438.000000)">
			<g id="twitter" transform="translate(730.000000, 386.000000)">
				<g class="st0">
					<path class="st1" d="M43.5,6.4c-0.5,0.8-1.2,1.4-1.9,2c0,0.1,0,0.3,0,0.5c0,1-0.1,2-0.4,3s-0.7,2-1.4,2.9s-1.3,1.8-2.2,2.5
						s-1.8,1.3-3,1.7s-2.4,0.6-3.8,0.6c-2.1,0-4.1-0.6-5.8-1.7c0.3,0,0.6,0,0.9,0c1.8,0,3.3-0.5,4.7-1.6c-0.8,0-1.6-0.3-2.2-0.8
						s-1.1-1.1-1.3-1.9c0.3,0,0.5,0.1,0.7,0.1c0.3,0,0.7,0,1-0.1c-0.9-0.2-1.6-0.6-2.2-1.3s-0.9-1.5-0.9-2.4v0
						c0.5,0.3,1.1,0.5,1.7,0.5C26.9,10,26.5,9.6,26.2,9s-0.5-1.2-0.5-1.8c0-0.7,0.2-1.3,0.5-1.9c0.9,1.2,2.1,2.1,3.5,2.8
						s2.8,1.1,4.4,1.2C34,9,34,8.7,34,8.4c0-1,0.4-1.9,1.1-2.7s1.6-1.1,2.7-1.1c1.1,0,2,0.4,2.8,1.2c0.9-0.2,1.7-0.5,2.4-0.9
						c-0.3,0.9-0.8,1.6-1.7,2.1C42,6.9,42.7,6.7,43.5,6.4z"/>
				</g>
			</g>
		</g>
	</g>
</g>
</svg>
