<?xml version="1.0" encoding="utf-8"?>
<!-- Generator: Adobe Illustrator 21.0.0, SVG Export Plug-In . SVG Version: 6.00 Build 0)  -->
<svg version="1.1" id="Layer_1" xmlns="http://www.w3.org/2000/svg" xmlns:xlink="http://www.w3.org/1999/xlink" x="0px" y="0px"
	 viewBox="0 0 19 19" style="enable-background:new 0 0 19 19;" xml:space="preserve">
<style type="text/css">
	.st0{fill-rule:evenodd;clip-rule:evenodd;fill:#FFFFFF;}
</style>
<g id="Layer_2">
</g>
<path class="st0" d="M18.5,9.5c0-1.2,0-2.5-0.1-3.7C18.4,4.3,18,3.1,17,2s-2.3-1.4-3.8-1.5C12,0.5,10.7,0.5,9.5,0.5
	c-1.2,0-2.5,0-3.7,0.1C4.3,0.6,3.1,1,2,2S0.6,4.3,0.6,5.8C0.5,7,0.5,8.3,0.5,9.5c0,1.2,0,2.5,0.1,3.7C0.6,14.7,1,15.9,2,17
	c1.1,1.1,2.3,1.4,3.8,1.5c1.2,0.1,2.5,0.1,3.7,0.1c1.2,0,2.5,0,3.7-0.1c1.4-0.1,2.7-0.4,3.8-1.5c1.1-1.1,1.4-2.3,1.5-3.8
	C18.5,12,18.5,10.7,18.5,9.5z M9.5,2.1c1.3,0,4.1-0.1,5.3,0.4c0.4,0.2,0.7,0.4,1,0.7c0.3,0.3,0.5,0.6,0.7,1c0.5,1.2,0.4,4,0.4,5.3
	s0.1,4.1-0.4,5.3c-0.2,0.4-0.4,0.7-0.7,1c-0.3,0.3-0.6,0.5-1,0.7c-1.2,0.5-4,0.4-5.3,0.4c-1.3,0-4.1,0.1-5.3-0.4
	c-0.4-0.2-0.7-0.4-1-0.7c-0.3-0.3-0.5-0.6-0.7-1c-0.5-1.2-0.4-4-0.4-5.3S2,5.4,2.5,4.2c0.2-0.4,0.4-0.7,0.7-1c0.3-0.3,0.6-0.5,1-0.7
	C5.4,2,8.2,2.1,9.5,2.1z M15.4,4.7c0-0.6-0.5-1.1-1.1-1.1c-0.6,0-1.1,0.5-1.1,1.1s0.5,1.1,1.1,1.1C14.9,5.8,15.4,5.3,15.4,4.7z
	 M14.1,9.5c0-2.6-2.1-4.6-4.6-4.6S4.9,6.9,4.9,9.5s2.1,4.6,4.6,4.6S14.1,12.1,14.1,9.5z M12.5,9.5c0,1.7-1.3,3-3,3s-3-1.3-3-3
	c0-1.7,1.3-3,3-3S12.5,7.8,12.5,9.5z"/>
</svg>
